<svg width="35" height="30" viewBox="0 0 35 30" fill="none" xmlns="http://www.w3.org/2000/svg">
<g clip-path="url(#clip0_298_46)">
<rect x="13.384" y="13.1774" width="13.1317" height="0.5" transform="rotate(-78.8489 13.384 13.1774)" fill="#D9D9D9" stroke="black" stroke-width="0.5"/>
<path d="M9.46591 4.0564V14.2382H7.15909L3.48011 8.88879H3.42045V14.2382H0.65625V4.0564H3.00284L6.62216 9.38595H6.7017V4.0564H9.46591Z" fill="black"/>
<path d="M20.5199 9.14731C20.5199 10.2808 20.2995 11.237 19.8587 12.0159C19.4179 12.7915 18.8229 13.3798 18.0739 13.7808C17.3248 14.1786 16.4896 14.3774 15.5682 14.3774C14.6402 14.3774 13.8016 14.1769 13.0526 13.7759C12.3068 13.3715 11.7135 12.7815 11.2727 12.006C10.8352 11.2271 10.6165 10.2742 10.6165 9.14731C10.6165 8.01379 10.8352 7.05924 11.2727 6.28367C11.7135 5.50479 12.3068 4.91649 13.0526 4.51876C13.8016 4.11772 14.6402 3.9172 15.5682 3.9172C16.4896 3.9172 17.3248 4.11772 18.0739 4.51876C18.8229 4.91649 19.4179 5.50479 19.8587 6.28367C20.2995 7.05924 20.5199 8.01379 20.5199 9.14731ZM17.6761 9.14731C17.6761 8.53746 17.5949 8.02373 17.4325 7.60612C17.2734 7.18519 17.0365 6.86701 16.7216 6.65157C16.41 6.43282 16.0256 6.32345 15.5682 6.32345C15.1108 6.32345 14.7247 6.43282 14.4098 6.65157C14.0982 6.86701 13.8613 7.18519 13.6989 7.60612C13.5398 8.02373 13.4602 8.53746 13.4602 9.14731C13.4602 9.75716 13.5398 10.2725 13.6989 10.6935C13.8613 11.1111 14.0982 11.4293 14.4098 11.648C14.7247 11.8635 15.1108 11.9712 15.5682 11.9712C16.0256 11.9712 16.41 11.8635 16.7216 11.648C17.0365 11.4293 17.2734 11.1111 17.4325 10.6935C17.5949 10.2725 17.6761 9.75716 17.6761 9.14731Z" fill="#F0AFAF"/>
<path d="M21.6562 4.0564H25.0966L27.4631 9.82345H27.5824L29.9489 4.0564H33.3892V14.2382H30.6847V8.35186H30.6051L28.3381 14.1587H26.7074L24.4403 8.31208H24.3608V14.2382H21.6562V4.0564Z" fill="black"/>
<path d="M9.46591 16.0564V26.2382H7.15909L3.48011 20.8888H3.42045V26.2382H0.65625V16.0564H3.00284L6.62216 21.3859H6.7017V16.0564H9.46591Z" fill="black"/>
<path d="M20.5199 21.1473C20.5199 22.2808 20.2995 23.237 19.8587 24.0159C19.4179 24.7915 18.8229 25.3798 18.0739 25.7808C17.3248 26.1786 16.4896 26.3774 15.5682 26.3774C14.6402 26.3774 13.8016 26.1769 13.0526 25.7759C12.3068 25.3715 11.7135 24.7815 11.2727 24.006C10.8352 23.2271 10.6165 22.2742 10.6165 21.1473C10.6165 20.0138 10.8352 19.0592 11.2727 18.2837C11.7135 17.5048 12.3068 16.9165 13.0526 16.5188C13.8016 16.1177 14.6402 15.9172 15.5682 15.9172C16.4896 15.9172 17.3248 16.1177 18.0739 16.5188C18.8229 16.9165 19.4179 17.5048 19.8587 18.2837C20.2995 19.0592 20.5199 20.0138 20.5199 21.1473ZM17.6761 21.1473C17.6761 20.5375 17.5949 20.0237 17.4325 19.6061C17.2734 19.1852 17.0365 18.867 16.7216 18.6516C16.41 18.4328 16.0256 18.3234 15.5682 18.3234C15.1108 18.3234 14.7247 18.4328 14.4098 18.6516C14.0982 18.867 13.8613 19.1852 13.6989 19.6061C13.5398 20.0237 13.4602 20.5375 13.4602 21.1473C13.4602 21.7572 13.5398 22.2725 13.6989 22.6935C13.8613 23.1111 14.0982 23.4293 14.4098 23.648C14.7247 23.8635 15.1108 23.9712 15.5682 23.9712C16.0256 23.9712 16.41 23.8635 16.7216 23.648C17.0365 23.4293 17.2734 23.1111 17.4325 22.6935C17.5949 22.2725 17.6761 21.7572 17.6761 21.1473Z" fill="#B5CB99"/>
<path d="M21.6562 16.0564H25.0966L27.4631 21.8234H27.5824L29.9489 16.0564H33.3892V26.2382H30.6847V20.3519H30.6051L28.3381 26.1587H26.7074L24.4403 20.3121H24.3608V26.2382H21.6562V16.0564Z" fill="black"/>
<mask id="path-8-inside-1_298_46" fill="white">
<path d="M14.1584 12.9965C14.0709 12.9436 14.0429 12.8297 14.0959 12.7422L21.0577 1.23824L21.9133 1.75598L15.2774 12.7213C15.0444 13.1063 14.5434 13.2295 14.1584 12.9965Z"/>
</mask>
<path d="M14.1584 12.9965C14.0709 12.9436 14.0429 12.8297 14.0959 12.7422L21.0577 1.23824L21.9133 1.75598L15.2774 12.7213C15.0444 13.1063 14.5434 13.2295 14.1584 12.9965Z" fill="#D9D9D9"/>
<path d="M21.0577 1.23824L21.5755 0.382703L20.7199 -0.135041L20.2022 0.720494L21.0577 1.23824ZM21.9133 1.75598L22.7688 2.27373L23.2866 1.41819L22.431 0.900447L21.9133 1.75598ZM14.9514 13.2599L21.9133 1.75598L20.2022 0.720494L13.2403 12.2245L14.9514 13.2599ZM20.54 2.09377L21.3955 2.61152L22.431 0.900447L21.5755 0.382703L20.54 2.09377ZM21.0577 1.23824L14.4219 12.2035L16.1329 13.239L22.7688 2.27373L21.0577 1.23824ZM14.4219 12.2035C14.4748 12.116 14.5887 12.088 14.6762 12.141L13.6407 13.852C14.4982 14.371 15.614 14.0965 16.1329 13.239L14.4219 12.2035ZM13.2403 12.2245C12.9014 12.7845 13.0807 13.5132 13.6407 13.852L14.6762 12.141C15.0612 12.374 15.1844 12.8749 14.9514 13.2599L13.2403 12.2245Z" fill="black" mask="url(#path-8-inside-1_298_46)"/>
<rect x="16.8403" y="25.8314" width="1.46035" height="4" rx="0.730176" transform="rotate(-31.0281 16.8403 25.8314)" fill="#B5CB99"/>
</g>
<defs>
<clipPath id="clip0_298_46">
<rect width="35" height="29.2591" fill="white"/>
</clipPath>
</defs>
</svg>
